<svg xmlns="http://www.w3.org/2000/svg" width="50" height="50" viewBox="0 0 600 600"><path d="M206 148C202.9 150.9 197.3 153.8 193 154 193 154 187 158 187 158 187 158 177 170 177 170 177 170 169 182 169 182 169 182 168 185 168 185 168.5 189.8 167.9 196.1 165 200 166.3 205.5 166.3 208.5 165 214 168 217.9 168.5 223.2 168 228 168 228 170 234 170 234 170 234 171 237 171 237 171 237 178.5 249 178.5 249 178.5 249 184 259 184 259 184 259 195 270 195 270 195 270 207 276.7 207 276.7 207 276.7 229 287 229 287 229 287 235 288 235 288 238.8 287.1 239.8 286.7 243 289 243 289 252 289 252 289 255.3 286.7 256.2 287.1 260 288 260 288 266 287 266 287 269.5 284 271.5 283.8 276 284 279.1 281.4 280 281.1 284 281 284 281 286 280 286 280 286 280 290 278 290 278 290 278 294 276 294 276 296.4 273.2 297.2 272.3 301 272 301 272 304 270 304 270 306.9 266.6 310.4 263.5 315 263 320.2 256.5 335.5 246.9 344 247 347.9 243.6 351 243 356 244 356 244 360 241.5 360 241.5 360 241.5 381.9 241.5 381.9 241.5 381.9 241.5 385 243 385 243 389.3 242.3 391.5 242.3 395 245 403.4 244.3 418.6 251.7 424 258 429.2 258.9 435 264.9 438 269 441.6 270 441.9 271.1 444 274 448.1 275.1 449.7 277.7 452 281 452 281 456 282 456 282 456 282 454 271 454 271 451.3 268.3 450.2 266.9 450 263 450 263 447 258 447 258 447 258 436.9 247 436.9 247 436.9 247 425 234 425 234 420.6 233.1 414.9 228.4 412 225 407.5 224.9 403.1 222.1 400 219 395.8 219.1 394.3 218.8 391 216 391 216 387 215 387 215 380 216.6 375.3 214.5 368.7 213.6 364.9 213.1 364.4 214.9 354 213 350.3 215.8 338.7 216.8 334 216 334 216 330 217 330 217 330 217 327 218 327 218 327 218 308 227.3 308 227.3 308 227.3 296 233 296 233 292.6 237 290.3 238.7 285 239 285 239 280 241 280 241 276.5 244.3 274.7 244.5 270 244 266.8 246.4 265.8 245.9 262 245 258.2 247.8 253.8 247.8 250 245 242.3 246.8 231.5 243.8 226 238 222.4 237.7 222.2 236.8 220 234 215.9 232.9 212.2 229 211 225 207.5 222.2 206.7 221.5 206 217 202.4 213.7 201.7 211.9 202 207 202 207 201 203 201 203 196.7 197.2 201.1 183.1 208 181 212.1 176.3 215.9 174.8 222 176 224.8 174 225.2 174 228 176 234.2 174.8 239.7 176.4 244 181 247.4 181.6 249 182.6 250 186 259.3 193.4 257.8 203.6 257 214 257 214 267 207 267 207 267.1 203 269.4 198 272 195 272 195 271 175 271 175 271 175 270 172 270 172 267.1 169.1 263.9 165 263 161 263 161 255 154 255 154 251.1 153.8 250.5 152.9 248 150 248 150 243 148 243 148 243 148 240 147 240 147 240 147 235 146 235 146 235 146 218 147.1 218 147.1 218 147.1 206 148 206 148ZM104 226C100.8 228.4 99.8 227.9 96 227 96 227 92 228 92 228 92 228 88 229 88 229 88 229 85 230 85 230 81.3 233.2 76.9 234.9 72 235 72 235 70 236 70 236 70 236 70 238 70 238 70 238 68 237 68 237 68 237 63 240 63 240 60.2 243.3 52.1 249.9 48 251 48 251 40 259 40 259 38.9 263.4 34.5 267.3 31 270 31 270 29 273 29 273 29 273 23.5 287 23.5 287 23.5 287 17 306 17 306 18 310 18.6 311.5 16 315 17.3 320.5 17.3 323.5 16 329 18.6 332.5 18 334 17 338 19.1 341 18.8 341.5 18 345 18 345 19 349 19 349 21.9 352.6 22.4 355.5 22 360 25.3 363.5 26.8 367.2 27 372 27 372 29 376 29 376 32.4 379.2 36.6 385.3 37 390 37 390 41 396 41 396 41 396 44 400 44 400 44 400 48 405 48 405 48 405 71 427 71 427 71 427 87 435.7 87 435.7 87 435.7 106 444.3 106 444.3 106 444.3 120 450 120 450 120 450 125 451 125 451 125 451 130 452 130 452 133.5 451.3 134 450.9 137 453 137 453 161 452 161 452 161 452 185 450 185 450 188.7 446.8 193.2 445.9 198 446 201.3 442.8 203.4 442.1 208 442 208 442 210 441 210 441 212.7 438.3 214.2 437.2 218 437 220.4 434.2 221.2 433.3 225 433 225 433 228 431 228 431 228 431 234 427 234 427 234 427 238 424 238 424 238 424 242 421 242 421 244.8 417.2 251.6 410.3 256 409 256 409 257 408 257 408 257 408 256 406 256 406 256 406 272 393 272 393 273.3 388.2 280 382.9 284 380 284.9 376.5 286.4 375.7 288.8 373 292.8 368.6 299.5 359.6 305 358 305 358 306 357 306 357 306 357 305 355 305 355 305 355 312 352 312 352 315.2 347.7 322.5 341.5 328 341 333.4 334.9 354.8 325.3 363 326 363 326 366 325 366 325 369.4 322.3 370.8 322.3 375 323 375 323 380 322 380 322 383 319.9 383.5 320.3 387 321 390.7 318.3 392.8 319 397 320 401.1 317 410.9 317 415 320 419.2 319 421.3 318.3 425 321 429.7 320 433.1 320 437 323 443 322.1 453.6 324.8 458 329 462.3 329 467.3 330.5 470 334 475.5 334.2 481.1 337.2 485 341 487.9 341.1 489.3 341.7 491 344 494.3 344.5 497 345.3 499 348 499 348 502 347 502 347 502 347 503 350 503 350 503 350 521 356 521 356 521 356 518 350 518 350 518 350 504.7 334 504.7 334 504.7 334 488 316 488 316 488 316 483 312 483 312 479.1 311.4 478.3 310 476 307 476 307 473 305 473 305 473 305 470 303 470 303 465.4 302.7 461 299.4 458 296 458 296 455 297 455 297 455 297 454 294 454 294 454 294 431 286 431 286 431 286 414 280 414 280 414 280 409 279 409 279 409 279 403 278 403 278 398.6 279.1 395.8 279.8 392 277 392 277 380 277 380 277 376.2 279.8 373.4 279.1 369 278 365.1 280.9 359.6 281 355 280 355 280 350 281 350 281 350 281 345 282 345 282 345 282 341 283 341 283 341 283 328 288 328 288 328 288 308 294 308 294 308 294 306 295 306 295 302.9 298.1 289.2 305.7 285 306 285 306 282 308 282 308 282 308 276 312 276 312 276 312 272 315 272 315 272 315 268 318 268 318 268 318 263 322 263 322 260.4 325.6 257.4 329.8 253 331 253 331 251 336 251 336 244.9 337.2 240.7 348.8 233 351 233 351 232 352 232 352 232 352 233 354 233 354 233 354 223 359 223 359 220.9 361.7 220.5 362.6 217 363 212.5 368.3 202.1 374.1 195 374 195 374 192 375 192 375 188.4 378.4 183.8 379.2 179 380.2 169 382.3 162.2 383 152 383 146.9 383 141.2 383.1 137 380 131 381 119.8 378 116 373 116 373 113 374 113 374 113 374 112 371 112 371 112 371 110 370 110 370 104.1 369.6 89.6 357.6 88 352 84.6 349.5 81.8 347.4 81 343 81 343 78 338 78 338 73.8 334.3 71.7 330.6 72 325 68.4 320.5 67.5 310.8 71 306 71 306 72 302 72 302 71.8 297.8 72 297 75 294 75.5 289.1 81.2 283.9 86 283 89.3 279.3 91 278.2 96 278 100.7 273.9 108 272.7 114 274 117.7 271.3 121.3 271.3 125 274 125 274 131 275 131 275 135.8 274.3 137.5 274.7 141 278 146.9 278.4 155.3 284.2 157 290 159.7 292.1 160.6 292.5 161 296 164.3 299.2 164.9 300.4 165 305 165 305 167 311 167 311 167 311 168 315 168 315 170.7 318.7 170 321.6 170 326 170 326 182 312 182 312 182 312 185.5 291.8 185.5 291.8 185.5 291.8 185 280 185 280 182.8 277.1 179 265.7 179 262 179 262 177 262 177 262 177 262 178 260 178 260 174.8 257.3 171.9 254.1 171 250 171 250 163 242 163 242 159 241.2 151.7 236.1 149 233 149 233 129 228.3 129 228.3 129 228.3 104 226 104 226ZM360 337C360 337 344 353 344 353 344 353 343 355 343 355 343.1 358.7 340.2 368.1 338 371 339.4 376.6 339.4 380.4 338 386 338 386 339 392 339 392 339 392 347.3 409 347.3 409 347.3 409 353 420 353 420 353 420 368 432.3 368 432.3 368 432.3 382 441 382 441 382 441 385 442 385 442 385 442 401.3 444.4 401.3 444.4 401.3 444.4 412 445 412 445 415.6 442.3 418.7 442.3 423 443 426.2 440.3 435.8 436.2 440 436 440 436 440 434 440 434 440 434 442 435 442 435 442 435 445 433 445 433 447.9 429.6 451.6 426 456 425 458.8 421.1 467.5 412.3 472 411 472 411 473 410 473 410 473 410 472 408 472 408 476.4 406 479 403.6 483 401.1 490.4 396.5 503.2 390.3 512 392 516.2 388.9 527.8 388.9 532 392 538.1 390.8 545.5 392.7 550 397 560.2 397.4 573 410.2 583 414 581.2 407.7 574.2 396.9 569.5 392.5 565.3 388.5 562.1 387.3 558 382 558 382 555 380 555 380 555 380 550 377 550 377 550 377 548 376 548 376 543.9 376.1 532.1 371.7 529 369 525.5 369.8 525 370.1 522 368 516.4 369.4 512.6 369.4 507 368 503.3 370.7 501.2 370 497 369 493.1 372.1 485.9 373.4 481 373 481 373 466 381.3 466 381.3 466 381.3 455 387 455 387 455 387 449 392 449 392 449 392 444 396 444 396 441.9 398.7 441.5 399.6 438 400 431.5 407.4 419.3 409.1 410 408.5 403.6 408.1 394.7 410.2 390 404 390 404 387 405 387 405 387 405 386 402 386 402 386 402 383 400 383 400 383 400 378 396 378 396 378 396 376 397 376 397 376 397 373 390 373 390 373 390 370 385 370 385 366.8 381.7 366.4 380.6 367 376 365 373.2 365 372.8 367 370 367 370 369 364 369 364 371 356.4 380.2 354.2 387 354.5 393.3 354.8 396 352.9 401 358 401 358 403 359 403 359 413 361.7 412.8 375.1 415 383 415 383 418 381 418 381 418 381 424 369 424 369 424 369 422 350 422 350 417.3 345.9 415.6 341.6 410 337.6 399.9 330.4 385.7 329.5 374 332.5 369.3 333.7 364 336.8 360 337ZM249 337C249 337 249 338 249 338 249 338 248 337 248 337 248 337 249 337 249 337Z" style="fill:#C60000;stroke:#C60000"/></svg>
